<svg xmlns="http://www.w3.org/2000/svg" xmlns:xlink="http://www.w3.org/1999/xlink" version="1.1" x="0px" y="0px" viewBox="0 0 100 125" enable-background="new 0 0 100 100" xml:space="preserve"><path d="M53.595,26.458c-2.596,0-4.939,0.41-6.966,1.217c-14.248,5.679-27.595,20.575-23.965,32.87  c3.319,11.243,10.186,12.342,19.689,13.862c1.735,0.278,3.53,0.565,5.467,0.931c1.507,0.285,3.018,0.43,4.491,0.43  c13.301,0,22.464-11.711,25.348-22.591c1.663-6.275,0.585-12.135-3.117-16.946C69.347,29.48,60.278,26.458,53.595,26.458z   M74.759,52.408c-2.6,9.806-10.733,20.36-22.448,20.36c-1.286,0-2.61-0.127-3.934-0.377c-1.979-0.375-3.794-0.665-5.551-0.946  c-9.351-1.496-14.502-2.32-17.286-11.75c-3.08-10.439,9.18-24.043,22.2-29.233c1.648-0.657,3.673-1.004,5.855-1.004  c5.948,0,13.996,2.66,18.569,8.602C75.322,42.164,76.195,46.991,74.759,52.408z"/><path d="M50.658,33.599c-2.611,0.257-5.012,1.229-6.761,2.74c-1.897,1.637-2.827,3.709-2.618,5.833  c0.378,3.854,4.379,6.65,9.513,6.65c0.445,0,0.898-0.022,1.356-0.067c5.677-0.558,9.797-4.324,9.379-8.574  C61.115,35.994,56.396,33.034,50.658,33.599z M51.854,45.77c-3.9,0.38-7.351-1.456-7.59-3.892c-0.111-1.126,0.455-2.287,1.592-3.269  c1.285-1.109,3.095-1.829,5.095-2.025c0.358-0.035,0.713-0.052,1.062-0.052c3.443,0,6.311,1.732,6.528,3.943  C58.786,42.965,55.724,45.389,51.854,45.77z"/><path d="M34.181,51.462L34.181,51.462c-2.967,0.053-5.332,2.871-5.272,6.281c0.061,3.416,2.435,6.092,5.405,6.092h0.085  c2.966-0.053,5.331-2.871,5.271-6.282C39.608,54.137,37.235,51.462,34.181,51.462z M34.345,60.835l-0.031,1.5v-1.5  c-1.296,0-2.375-1.411-2.405-3.145c-0.031-1.728,1.034-3.206,2.355-3.229c1.296,0,2.375,1.411,2.405,3.144  C36.7,59.333,35.636,60.812,34.345,60.835z"/><circle cx="51.403" cy="57.967" r="3.07"/><circle cx="65.005" cy="58.618" r="1.513"/><path d="M68.513,41.377c-0.247,0-0.494,0.027-0.734,0.081c-2.086,0.462-3.344,2.825-2.804,5.266  c0.471,2.126,2.167,3.669,4.032,3.669c0.247,0,0.493-0.027,0.734-0.081c2.087-0.463,3.345-2.825,2.803-5.266  C72.074,42.921,70.379,41.377,68.513,41.377z M69.093,47.384c-0.358,0.069-0.981-0.375-1.188-1.309  c-0.202-0.915,0.175-1.611,0.609-1.698c0.34,0,0.913,0.458,1.103,1.318C69.819,46.61,69.441,47.306,69.093,47.384z"/><text x="0" y="115" fill="#000000" font-size="5px" font-weight="bold" font-family="'Helvetica Neue', Helvetica, Arial-Unicode, Arial, Sans-serif">Created by Alina Oleynik</text><text x="0" y="120" fill="#000000" font-size="5px" font-weight="bold" font-family="'Helvetica Neue', Helvetica, Arial-Unicode, Arial, Sans-serif">from the Noun Project</text></svg>