<svg xmlns="http://www.w3.org/2000/svg" xmlns:xlink="http://www.w3.org/1999/xlink" version="1.1" x="0px" y="0px" viewBox="0 0 100 125" enable-background="new 0 0 100 100" xml:space="preserve"><g><g><g><path fill="#000000" d="M23.737,7.134l12.672-5.332c1.884-0.66,10.508-2.286,11.105-0.587l3.23,9.209     c0.243,0.695,0.219,1.458-0.069,2.17L38.29,43.173c-0.42,1.037-1.355,1.846-2.502,2.175c-1.143,0.32-2.354,0.109-3.23-0.564     L6.993,27.407c-0.232-0.166,3.623-7.404,3.85-8.348C10.957,18.087,21.339,7.975,23.737,7.134z"/></g></g><g><g><path fill="#000000" d="M37.395,64.402c-0.019-0.251-5.174-16.177-4.438-16.628c0.691-0.539,6.106-7.806,7.951-6.812     l23.495,4.744c1.447,0.779-3.352,14.72-4.134,16.172L47.73,69.732c-0.32,0.595-0.828,1.057-1.447,1.324L33.702,93.697     c-0.902,0.387-1.932-3.852-2.769-4.373"/></g></g><g><g><path fill="#000000" d="M91.152,78.396L88.94,66.819c-0.277-0.189-0.519-0.422-0.718-0.686c-0.197-0.267-0.351-0.564-0.452-0.888     l-1.34-4.254l-1.338-4.255c-3.344,0.646-5.912-1.646-7.45-4.165c-1.535-2.516-2.041-5.256-1.256-5.504l2.96-4.723l2.96-4.721     c1.001-0.315,4.688-0.538,8.201-0.599c3.512-0.061,6.847,0.041,7.135,0.369L95.565,58.17L91.152,78.396z"/></g></g><g><g><path fill="#000000" d="M97.558,38.04c-6.687,1.292-10.276-9.174-8.706-9.669l0.48-7.596"/></g></g><path fill="#000000" d="M52.033,99.72C21.397,99.72,0,78.761,0,48.748C0,18.679,19.105,0,49.859,0   c30.755,0,49.86,18.679,49.86,48.748C99.72,80.189,81.446,99.72,52.033,99.72z M49.859,4.155   c-28.192,0-45.705,17.087-45.705,44.593c0,27.565,19.689,46.817,47.878,46.817c26.851,0,43.532-17.938,43.532-46.817   C95.565,21.242,78.053,4.155,49.859,4.155z"/></g><text x="0" y="115" fill="#000000" font-size="5px" font-weight="bold" font-family="'Helvetica Neue', Helvetica, Arial-Unicode, Arial, Sans-serif">Created by Jesper Vestergaard</text><text x="0" y="120" fill="#000000" font-size="5px" font-weight="bold" font-family="'Helvetica Neue', Helvetica, Arial-Unicode, Arial, Sans-serif">from the Noun Project</text></svg>