<svg xmlns="http://www.w3.org/2000/svg" xmlns:xlink="http://www.w3.org/1999/xlink" version="1.1" x="0px" y="0px" viewBox="0 0 100 125" style="enable-background:new 0 0 100 100;" xml:space="preserve"><path d="M47.2,15.3c0,2.1,1.7,3.8,3.8,3.8s3.8-1.7,3.8-3.8c0-2.1-1.7-3.8-3.8-3.8S47.2,13.2,47.2,15.3z M52.7,15.3  c0,1-0.8,1.8-1.8,1.8s-1.8-0.8-1.8-1.8c0-1,0.8-1.8,1.8-1.8S52.7,14.3,52.7,15.3z"/><path d="M84.8,75.5c-2.1,0-3.8,1.7-3.8,3.8c0,2.1,1.7,3.8,3.8,3.8s3.8-1.7,3.8-3.8C88.5,77.2,86.8,75.5,84.8,75.5z M84.8,81.1  c-1,0-1.8-0.8-1.8-1.8c0-1,0.8-1.8,1.8-1.8c1,0,1.8,0.8,1.8,1.8C86.5,80.3,85.7,81.1,84.8,81.1z"/><path d="M20.6,78.2c-2.1,0-3.8,1.7-3.8,3.8c0,2.1,1.7,3.8,3.8,3.8s3.8-1.7,3.8-3.8C24.3,79.9,22.6,78.2,20.6,78.2z M20.6,83.7  c-1,0-1.8-0.8-1.8-1.8c0-1,0.8-1.8,1.8-1.8s1.8,0.8,1.8,1.8C22.3,82.9,21.5,83.7,20.6,83.7z"/><path d="M16.8,23.3c0,2.1,1.7,3.8,3.8,3.8s3.8-1.7,3.8-3.8c0-2.1-1.7-3.8-3.8-3.8S16.8,21.2,16.8,23.3z M22.3,23.3  c0,1-0.8,1.8-1.8,1.8s-1.8-0.8-1.8-1.8c0-1,0.8-1.8,1.8-1.8S22.3,22.3,22.3,23.3z"/><path d="M85.2,26.8c-2.1,0-3.8,1.7-3.8,3.8c0,2.1,1.7,3.8,3.8,3.8s3.8-1.7,3.8-3.8C89,28.5,87.3,26.8,85.2,26.8z M85.2,32.4  c-1,0-1.8-0.8-1.8-1.8c0-1,0.8-1.8,1.8-1.8c1,0,1.8,0.8,1.8,1.8C87,31.6,86.2,32.4,85.2,32.4z"/><path d="M70.3,50.3c0-13.6-11-24.6-24.6-24.6s-24.6,11-24.6,24.6s11,24.6,24.6,24.6S70.3,63.9,70.3,50.3z M23.1,51.3h16.4  c0.6,0,1-0.4,1-1s-0.4-1-1-1H23.1c0.1-1.5,0.3-3,0.6-4.4h20.4c0.6,0,1-0.4,1-1s-0.4-1-1-1H24.3c3.1-8.8,11.5-15.2,21.4-15.2  c7.1,0,13.4,3.3,17.6,8.4H52.6c-0.6,0-1,0.4-1,1s0.4,1,1,1h11.7c0.1,0,0.3,0,0.4-0.1c2.3,3.5,3.7,7.8,3.7,12.3  c0,1.7-0.2,3.4-0.6,5.1H47.3c-0.6,0-1,0.4-1,1s0.4,1,1,1h19.9c-0.3,1.1-0.8,2.1-1.3,3H55.6c-0.6,0-1,0.4-1,1s0.4,1,1,1h9.2  c-4,6.3-11.1,10.5-19.1,10.5C33.6,72.9,23.6,63.3,23.1,51.3z"/><path d="M73.3,26c1.5-1.5,2.4-3.5,2.4-5.8c0-4.5-3.7-8.1-8.1-8.1s-8.1,3.7-8.1,8.1s3.7,8.1,8.1,8.1c1.5,0,2.9-0.4,4.1-1.1  c4.9,6.2,7.6,14,7.6,22c0,19.7-16,35.6-35.6,35.6c-0.6,0-1,0.4-1,1s0.4,1,1,1c20.8,0,37.6-16.9,37.6-37.6  C81.3,40.9,78.5,32.6,73.3,26z M61.4,20.2c0-3.4,2.8-6.1,6.1-6.1s6.1,2.8,6.1,6.1s-2.8,6.1-6.1,6.1S61.4,23.6,61.4,20.2z"/><path d="M51.9,62.4c0.6,0,1-0.4,1-1s-0.4-1-1-1h-5.8c-0.6,0-1,0.4-1,1s0.4,1,1,1H51.9z"/><text x="0" y="115" fill="#ffffff" font-size="5px" font-weight="bold" font-family="'Helvetica Neue', Helvetica, Arial-Unicode, Arial, Sans-serif">Created by Made by Made</text><text x="0" y="120" fill="#ffffff" font-size="5px" font-weight="bold" font-family="'Helvetica Neue', Helvetica, Arial-Unicode, Arial, Sans-serif">from the Noun Project</text></svg>